<svg width="391" height="467" viewBox="0 0 391 467" fill="none" xmlns="http://www.w3.org/2000/svg">
<path d="M229.5 467C285.005 467 330 441.032 330 409C330 376.967 285.005 351 229.5 351C173.995 351 129 376.967 129 409C129 441.032 173.995 467 229.5 467Z" fill="#E0E0E0"/>
<g opacity="0.1">
<path opacity="0.1" d="M200.175 79.0731L37.5673 172.921V264.9C37.5553 265.433 37.704 265.957 37.9942 266.404C38.0912 266.565 38.2263 266.699 38.3877 266.794C38.549 266.89 38.7316 266.945 38.919 266.953C39.1524 266.948 39.3803 266.881 39.5796 266.76L204.047 171.753V81.3286C204.047 78.8292 202.309 77.8335 200.175 79.0731Z" fill="#103E13"/>
</g>
<path d="M280.578 383.941C281.781 386.31 282.319 388.961 282.136 391.611C282.018 393.931 280.629 396.945 281.255 402.178C281.882 407.41 283.085 409.07 283.644 412.761C283.972 414.455 283.96 416.197 283.608 417.886C283.256 419.575 282.572 421.178 281.594 422.6C279.426 426.122 274.65 428.916 265.198 428.577C257.576 428.306 254.493 424.394 254.324 419.907L280.578 383.941Z" fill="#263238"/>
<path d="M278.41 373.137C278.644 374.11 278.797 375.102 278.867 376.1C279.155 377.878 279.68 379.487 280.104 381.299C280.222 381.756 280.324 382.213 280.425 382.671C281.154 386.176 280.425 389.8 280.425 393.373C280.718 397.594 281.462 401.772 282.644 405.836C284.338 413.252 284.626 418.214 278.139 423.345C274.751 426.054 270.974 426.139 266.638 426.257C263.303 426.373 260 425.577 257.084 423.954C254.307 421.905 254.34 420.178 254.324 419.518C254.069 411.644 256.915 402.483 257.491 394.626C257.705 392.51 257.751 390.381 257.626 388.259C257.355 385.651 256.458 383.06 256.17 380.435C255.968 379.457 256.093 378.44 256.525 377.54C256.963 377.042 257.503 376.644 258.108 376.372C258.713 376.101 259.369 375.962 260.032 375.965C263.419 375.508 266.943 375.169 270.415 374.915C271.232 374.76 272.077 374.93 272.769 375.389C273.447 375.999 273.464 377.083 273.65 377.912C273.836 378.742 274.48 379.809 275.344 379.606C275.63 379.513 275.882 379.339 276.069 379.104C276.255 378.869 276.369 378.584 276.394 378.285C276.479 377.709 276.733 373.205 276.716 372.544C276.784 372.578 278.003 372.392 278.41 373.137Z" fill="#37474F"/>
<path d="M163.704 399.265C163.146 400.657 163.146 402.209 163.704 403.6C164.263 404.887 170.716 408.884 179.643 408.68C186.248 408.469 192.679 406.506 198.275 402.991C201.747 400.874 205.304 400.603 209.725 400.519C214.146 400.434 219.329 398.825 220.837 396.844C221.404 394.903 221.404 392.841 220.837 390.9L163.704 399.265Z" fill="#263238"/>
<path d="M196.022 372.9C195.68 373.537 195.374 374.193 195.107 374.864C194.013 377.284 192.323 379.387 190.195 380.977C187.115 383.107 183.809 384.891 180.337 386.294C178.135 387.277 175.832 387.547 173.562 388.326C171.046 389.131 168.622 390.198 166.329 391.51C162.738 393.711 162.061 399.621 165.94 402.127C169.327 404.278 178.254 406.835 187.841 404.532C193.075 403.279 199.02 397.978 205.829 397.758C210.149 397.606 218.364 396.725 221.277 393.559C222.344 388.834 221.175 387.497 220.21 383.399C219.693 381.131 219.421 378.815 219.397 376.49C219.397 375.271 220.21 371.766 217.703 371.41L217.449 374.035C217.449 374.035 216.958 374.915 214.281 375.389C213.418 375.542 212.74 376.676 212.283 377.709C211.825 378.742 211.537 379.538 210.589 379.521C210.293 379.48 210.013 379.361 209.778 379.176C209.543 378.992 209.361 378.749 209.251 378.471C209.047 377.919 208.883 377.353 208.76 376.778C208.417 375.855 207.877 375.018 207.178 374.325C206.479 373.632 205.637 373.099 204.711 372.765C203.175 372.246 201.583 371.91 199.969 371.765C198.749 371.579 197.733 371.054 196.581 372.104C196.361 372.344 196.173 372.611 196.022 372.9Z" fill="#37474F"/>
<path d="M265.52 171.494C267.214 197.351 268.111 212.405 272.735 282.967C276.138 295.043 278.301 307.434 279.189 319.949C280.104 335.562 282.322 382.603 282.322 382.603C282.322 382.603 269.737 392.932 255.221 388.157C255.221 388.157 242.043 319.001 237.436 297.428C233.032 276.718 229.644 254.078 229.644 254.078L226.375 282.967C226.375 282.967 226.951 295.819 226.545 315.005C226.341 325.266 221.463 380.808 221.463 380.808C221.463 380.808 203.797 388.834 191.872 378.522C191.872 378.522 191.008 288.453 190.822 279.173C190.619 268.573 192.516 161.977 192.516 161.977L265.52 171.494Z" fill="#455A64"/>
<path d="M229.577 254.095L220.549 206.8C220.549 206.8 206.591 205.581 198.884 197.792C198.884 197.792 200.256 205.428 217.805 210L226.528 253.553L226.375 282.967L229.577 254.095Z" fill="#37474F"/>
<path d="M281.916 374.119C276.551 378.764 269.651 381.25 262.556 381.096C262.556 381.096 274.582 379.301 281.797 371.376L281.916 374.119Z" fill="#37474F"/>
<path d="M222.022 374.255C222.022 374.255 209.708 378.556 199.325 375.271C199.325 375.271 207.337 380.656 221.836 376.236L222.022 374.255Z" fill="#37474F"/>
<path d="M92.1393 75.2782C92.0518 74.8737 91.8785 74.4926 91.6312 74.1606C91.2005 73.3795 90.9832 72.4987 91.001 71.607C91.0189 70.7152 91.2713 69.8439 91.7328 69.0806C92.0323 68.7076 92.2827 68.2979 92.4781 67.8614C92.8169 66.93 92.3934 65.8802 92.4781 64.8811C92.783 60.4276 100.846 62.3749 103.403 63.1878C104.149 63.4418 108.485 64.5594 110.179 65.152C110.027 62.7081 110.267 60.2557 110.89 57.8876C112.042 53.2647 115.853 53.7389 116.073 56.5668C116.283 59.1269 116.76 61.6581 117.496 64.1191C117.97 65.931 119.19 67.7259 119.884 70.4014C120.884 73.7881 120.63 75.6846 124.017 78.8681C129.099 83.6603 155.184 101.339 155.184 101.339C161.688 97.1562 186.858 81.6791 196.293 76.5652C205.423 71.6037 210.081 75.6 210.081 75.6L202.12 104.912C202.12 104.912 170.733 121.1 159.418 126.045C151.525 129.431 148.036 127.535 139.329 119.779C132.419 113.243 123.306 103.794 113.465 95.0903C109.535 91.6021 106.689 89.824 103.911 89.6886C102.861 89.6886 101.811 89.5701 100.778 89.4685C98.4404 89.1975 95.6963 88.6218 94.5615 86.3019C94.1719 85.5229 93.9856 84.6086 93.6638 83.8296C93.1725 82.5765 92.3934 81.4589 91.9699 80.2059C91.621 79.366 91.504 78.4478 91.6312 77.5473C91.6312 76.8192 92.2409 76.091 92.1393 75.2782Z" fill="#EEF9FF"/>
<path d="M211.741 73.3477C203.712 73.3477 200.595 73.3477 190.398 79.1389C180.202 84.9301 160.316 98.0874 160.316 98.0874C160.316 98.0874 169.225 103.049 171.004 120.66L203.187 105.555L211.741 73.3477Z" fill="#455A64"/>
<path d="M107.079 67.8445C109.738 68.488 110.568 70.1644 110.754 73.9067C110.856 76.1249 111.788 80.172 114.312 81.6452C113.143 81.6031 112.015 81.2075 111.076 80.5107C109.857 79.41 109.535 79.3084 108.942 80.0196C108.504 80.497 107.958 80.8628 107.35 81.0864C107.786 81.5227 108.069 82.088 108.158 82.6983C108.246 83.3085 108.135 83.931 107.841 84.4731C106.808 86.4712 101.608 86.8607 97.2039 84.9472C97.2039 84.9472 104.267 86.6406 105.673 84.3377C107.079 82.0347 103.285 79.5285 100.592 78.9697C100.592 78.9697 107.367 80.1043 108.248 77.8521C109.128 75.6 106.249 74.1268 102.251 73.3986C102.251 73.3986 107.841 74.0252 108.654 72.0778C108.959 71.3021 108.966 70.4413 108.676 69.6603C108.385 68.8793 107.816 68.2328 107.079 67.8445Z" fill="#BCE6FF"/>
<path d="M155.116 101.39C158.64 103.742 161.368 107.108 162.941 111.042C162.941 111.042 163.5 103.608 157.386 99.9502L155.116 101.39Z" fill="#BCE6FF"/>
<path d="M191.55 102.304C192.55 82.3731 200.578 74.3298 211.741 73.3476L236.826 71.6543C243.602 73.2291 261.218 76.6158 261.218 76.6158C268.518 78.8002 273.65 97.8334 271.939 108.671C270.229 119.508 266.655 127.772 265.655 146.009C265.943 163.281 266.197 166.702 266.197 173.475C250.597 183.381 208.692 185.447 192.211 175.507C192.211 175.507 191.923 158.811 191.584 148.176C191.008 129.939 191.212 109.162 191.55 102.304Z" fill="#3EB3F9"/>
<path d="M198.139 17.7551C197.13 18.3309 196.296 19.168 195.724 20.1784C195.151 21.1887 194.862 22.3347 194.887 23.4956C194.847 25.2342 195.344 26.9429 196.31 28.3893C197.77 30.2341 199.792 31.5537 202.069 32.1486C203.05 32.3834 204.008 32.7064 204.931 33.1138C206.081 33.9334 207.158 34.8513 208.15 35.857C209.691 37.0423 211.216 38.2615 212.791 39.413C215.914 41.745 219.178 43.8826 222.564 45.8139C225.818 47.6761 229.217 49.273 232.727 50.5891C236.437 51.9607 239.502 50.7584 243.466 51.114L242.89 61.8498C242.89 61.8498 244.211 59.3775 245.719 56.4311C247.023 53.8911 252.494 40.9539 252.494 40.9539C254.628 35.8739 257.338 30.5568 257.017 24.8841C256.746 20.2952 255.831 16.265 252.342 14.3177C252.054 9.03443 250.851 6.46055 247.142 3.63266C244.405 1.78242 241.261 0.62057 237.978 0.245976C234.27 -0.182135 230.519 -0.0508541 226.85 0.635438C221.362 1.51598 215.874 2.92146 210.318 2.6336C207.349 2.31722 204.348 2.50615 201.442 3.19238C199.596 3.79086 197.994 4.97008 196.873 6.554C195.753 8.13792 195.175 10.0416 195.226 11.9808C195.107 13.9959 196.716 17.3149 198.139 17.7551Z" fill="#37474F"/>
<path d="M232.897 19.127C232.897 22.5137 236.013 27.3058 240.756 31.4376C240.196 34.5716 240.282 37.787 241.01 40.8865C241.301 41.8497 241.747 42.7591 242.331 43.5789C242.548 43.9219 242.838 44.2124 243.18 44.4292C243.523 44.646 243.91 44.7836 244.313 44.832C245.414 44.832 245.854 44.2562 246.193 43.3926C246.693 42.2984 247.259 41.2353 247.887 40.2091C248.167 39.771 248.49 39.3625 248.852 38.9899C250.546 37.449 255.441 35.6032 257.728 40.8187C260.015 46.0342 255.729 53.4172 251.766 54.5179C244.99 56.4314 243.449 51.7747 243.449 51.7747L243.568 74.3638C241.654 80.0873 231.05 85.6584 222.513 84.5239C213.976 83.3894 216.687 78.2416 220.159 74.7533L219.719 66.9131C216.68 67.2143 213.614 67.1004 210.606 66.5745C207.066 65.8971 204.152 62.5782 202.679 57.1764C200.331 46.8847 199.986 36.2377 201.662 25.8157C202.95 19.4487 204.525 16.7055 205.287 15.9604C205.287 17.349 207.946 21.5993 214.84 22.5476C222.124 23.5974 227.646 21.2945 232.897 19.127Z" fill="#EEF9FF"/>
<path d="M219.685 66.9468C225.986 66.3711 231.101 65.5075 234.658 63.5602C237.267 62.1885 239.519 57.9044 240.197 56.3804C240.197 56.3804 240.027 62.2393 236.521 65.4906C231.575 70.0795 219.871 70.0795 219.871 70.0795L219.685 66.9468Z" fill="#BCE6FF"/>
<path d="M222.988 38.1938C222.991 38.6415 223.126 39.0783 223.376 39.45C223.626 39.8217 223.979 40.1118 224.392 40.2845C224.806 40.4572 225.261 40.5047 225.701 40.4212C226.141 40.3378 226.546 40.127 226.868 39.815C227.189 39.503 227.411 39.1036 227.508 38.6664C227.604 38.2291 227.57 37.7732 227.409 37.3552C227.248 36.9373 226.968 36.5757 226.604 36.3154C226.239 36.0551 225.807 35.9075 225.359 35.8909C225.052 35.8864 224.747 35.9424 224.462 36.0557C224.177 36.169 223.916 36.3374 223.696 36.5513C223.476 36.7651 223.3 37.0203 223.179 37.3021C223.057 37.5839 222.992 37.8869 222.988 38.1938Z" fill="#263238"/>
<path d="M223.818 30.7263L229.357 33.0123C229.645 32.2564 229.63 31.4183 229.314 30.6734C228.998 29.9285 228.407 29.3346 227.663 29.016C227.299 28.8672 226.909 28.7935 226.515 28.7994C226.122 28.8053 225.734 28.8908 225.375 29.0506C225.016 29.2104 224.693 29.4412 224.425 29.7292C224.157 30.0172 223.951 30.3564 223.818 30.7263Z" fill="#263238"/>
<path d="M225.986 50.5215L217.517 53.9082C217.717 54.476 218.031 54.9971 218.439 55.4402C218.847 55.8833 219.341 56.239 219.89 56.486C220.44 56.7329 221.033 56.8659 221.636 56.8768C222.238 56.8878 222.836 56.7766 223.394 56.5498C224.518 56.0695 225.413 55.1758 225.896 54.0536C226.378 52.9315 226.41 51.6668 225.986 50.5215Z" fill="#388E3B"/>
<path d="M221.057 56.465C221.049 56.606 221.049 56.7473 221.057 56.8884C221.852 57.0166 222.666 56.9228 223.411 56.6174C224.265 56.2523 224.991 55.6423 225.497 54.8646C226.004 54.087 226.268 53.1765 226.257 52.2486C225.957 52.1813 225.65 52.1472 225.342 52.147C224.203 52.1559 223.113 52.6148 222.31 53.4236C221.507 54.2324 221.057 55.3256 221.057 56.465Z" fill="#BCE6FF"/>
<path d="M203.085 32.8769L208.556 30.7602C208.43 30.401 208.233 30.0709 207.976 29.7898C207.719 29.5087 207.408 29.2823 207.062 29.1242C206.716 28.966 206.341 28.8794 205.96 28.8696C205.58 28.8598 205.201 28.9268 204.847 29.0668C204.11 29.3413 203.511 29.8957 203.181 30.6093C202.851 31.3229 202.817 32.1379 203.085 32.8769Z" fill="#263238"/>
<path d="M204.491 37.7029C204.473 38.0103 204.516 38.3184 204.618 38.609C204.72 38.8996 204.879 39.167 205.086 39.3956C205.292 39.6241 205.542 39.8093 205.821 39.9402C206.1 40.0712 206.402 40.1452 206.71 40.1582C207.185 40.1917 207.66 40.0824 208.072 39.8444C208.485 39.6063 208.817 39.2503 209.025 38.8221C209.234 38.394 209.31 37.9132 209.243 37.4417C209.176 36.9701 208.97 36.5293 208.651 36.1759C208.331 35.8225 207.913 35.5727 207.451 35.4585C206.988 35.3444 206.502 35.3711 206.055 35.5352C205.608 35.6994 205.22 35.9935 204.941 36.3798C204.663 36.7661 204.506 37.2268 204.491 37.7029Z" fill="#263238"/>
<path d="M216.653 49.4038L208.218 47.812L216.179 34.333L216.653 49.4038Z" fill="#BCE6FF"/>
<path d="M262.674 77.0222C273.227 78.851 279.613 82.2377 282.323 90.569C286.168 102.422 296.924 136.001 299.142 147.939C300.498 155.272 302.615 159.911 296.398 164.737C281.585 175.453 266.118 185.237 250.089 194.032C235.996 201.415 214.722 202.871 214.722 202.871L230.153 193.541L232.897 188.309L274.142 151.783L258.558 105.758C258.558 105.758 254.629 82.1022 262.674 77.0222Z" fill="#EEF9FF"/>
<path d="M274.141 151.783C277.493 150.057 281.211 149.163 284.982 149.176C284.982 149.176 281.323 146.026 273.244 149.176L274.141 151.783Z" fill="#BCE6FF"/>
<path d="M261.217 76.6157C266.045 77.5132 271.38 78.0381 276.293 81.1539C281.205 84.2696 282.102 88.0458 285.88 99.6791C289.657 111.312 294.112 128.466 294.112 128.466C294.112 128.466 284.863 136.289 268.941 136.509C268.941 136.509 261.099 114.75 259.168 109.907C257.237 105.064 252.376 89.4513 261.217 76.6157Z" fill="#455A64"/>
<path d="M244.212 181.146V182.602C244.227 183.32 244.054 184.03 243.709 184.66C243.365 185.29 242.86 185.818 242.247 186.192L203.797 209.526C203.174 209.877 202.471 210.06 201.756 210.06C201.041 210.06 200.338 209.877 199.715 209.526L127.286 169.868C126.66 169.517 126.136 169.009 125.765 168.395C125.394 167.781 125.189 167.081 125.169 166.363V165.381L201.713 207.342L244.212 181.146Z" fill="#3EB3F9"/>
<g opacity="0.5">
<path opacity="0.5" d="M244.212 181.146V182.602C244.227 183.32 244.054 184.03 243.709 184.66C243.365 185.29 242.86 185.818 242.247 186.192L203.797 209.526C203.174 209.877 202.471 210.06 201.756 210.06C201.041 210.06 200.338 209.877 199.715 209.526L127.286 169.868C126.66 169.517 126.136 169.009 125.765 168.395C125.394 167.781 125.189 167.081 125.169 166.363V165.381L201.713 207.342L244.212 181.146Z" fill="white"/>
</g>
<g opacity="0.1">
<path opacity="0.1" d="M244.212 181.146V182.602C244.227 183.32 244.054 184.03 243.709 184.66C243.365 185.29 242.86 185.818 242.247 186.192L203.797 209.526C203.174 209.877 202.471 210.06 201.756 210.06C201.041 210.06 200.338 209.877 199.715 209.526L127.286 169.868C126.66 169.517 126.136 169.009 125.765 168.395C125.394 167.781 125.189 167.081 125.169 166.363V165.381L201.713 207.342L244.212 181.146Z" fill="#103E13"/>
</g>
<path d="M125.152 165.381L167.007 139.981C167.378 139.768 167.798 139.657 168.226 139.657C168.654 139.657 169.074 139.768 169.446 139.981L243.974 180.824C244.055 180.872 244.122 180.94 244.168 181.022C244.215 181.104 244.239 181.196 244.239 181.29C244.239 181.384 244.215 181.476 244.168 181.558C244.122 181.639 244.055 181.708 243.974 181.756L201.713 207.41L125.152 165.381Z" fill="#3EB3F9"/>
<g opacity="0.85">
<path opacity="0.85" d="M125.152 165.381L167.007 139.981C167.378 139.768 167.798 139.657 168.226 139.657C168.654 139.657 169.074 139.768 169.446 139.981L243.974 180.824C244.055 180.872 244.122 180.94 244.168 181.022C244.215 181.104 244.239 181.196 244.239 181.29C244.239 181.384 244.215 181.476 244.168 181.558C244.122 181.639 244.055 181.708 243.974 181.756L201.713 207.41L125.152 165.381Z" fill="white"/>
</g>
<path d="M201.341 203.363L223.919 189.664L156.877 152.918L134.18 166.549L201.341 203.363Z" fill="#3EB3F9"/>
<g opacity="0.6">
<path opacity="0.6" d="M201.341 203.363L223.919 189.664L156.877 152.918L134.18 166.549L201.341 203.363Z" fill="white"/>
</g>
<path d="M212.452 166.803L212.029 167.057L200.968 173.78L180.777 162.705L180.354 162.485L191.838 155.509L212.452 166.803Z" fill="#3EB3F9"/>
<path d="M212.029 167.057L200.968 173.78L180.778 162.706L191.855 156L212.029 167.057Z" fill="#3EB3F9"/>
<g opacity="0.6">
<path opacity="0.6" d="M212.029 167.057L200.968 173.78L180.778 162.706L191.855 156L212.029 167.057Z" fill="white"/>
</g>
<path d="M201.696 207.342V210.051C200.982 210.075 200.274 209.905 199.647 209.56L127.286 169.868C126.66 169.517 126.136 169.009 125.765 168.395C125.394 167.781 125.189 167.081 125.169 166.363V165.381L201.696 207.342Z" fill="#3EB3F9"/>
<g opacity="0.03">
<path opacity="0.03" d="M201.696 207.342V210.051C200.982 210.075 200.274 209.905 199.647 209.56L127.286 169.868C126.66 169.517 126.136 169.009 125.765 168.395C125.394 167.781 125.189 167.081 125.169 166.363V165.381L201.696 207.342Z" fill="white"/>
</g>
<g opacity="0.2">
<path opacity="0.2" d="M201.696 207.342V210.051C200.982 210.075 200.274 209.905 199.647 209.56L127.286 169.868C126.66 169.517 126.136 169.009 125.765 168.395C125.394 167.781 125.189 167.081 125.169 166.363V165.381L201.696 207.342Z" fill="#103E13"/>
</g>
<path d="M200.561 207.968C199.892 208.248 199.167 208.372 198.442 208.331C197.718 208.29 197.012 208.085 196.378 207.731L124.288 168.209C123.657 167.859 123.111 167.374 122.69 166.788C122.268 166.203 121.981 165.531 121.849 164.822L113.041 118.526C113.017 118.261 113.017 117.995 113.041 117.73C113.025 117.09 113.136 116.454 113.369 115.858C113.602 115.262 113.951 114.718 114.396 114.259L189.23 155.339C189.694 155.588 190.096 155.938 190.406 156.363C190.717 156.788 190.928 157.277 191.025 157.795L200.561 207.968Z" fill="#3EB3F9"/>
<g opacity="0.4">
<path opacity="0.4" d="M200.561 207.968C199.892 208.248 199.167 208.372 198.442 208.331C197.718 208.29 197.012 208.085 196.378 207.731L124.288 168.209C123.657 167.859 123.111 167.374 122.69 166.788C122.268 166.203 121.981 165.531 121.849 164.822L113.041 118.526C113.017 118.261 113.017 117.995 113.041 117.73C113.025 117.09 113.136 116.454 113.369 115.858C113.602 115.262 113.951 114.718 114.396 114.259L189.23 155.339C189.694 155.588 190.096 155.938 190.406 156.363C190.717 156.788 190.928 157.277 191.025 157.795L200.561 207.968Z" fill="white"/>
</g>
<path d="M201.696 207.342L201.222 207.63C201.011 207.759 200.79 207.872 200.561 207.968L191.025 157.862C190.928 157.345 190.717 156.856 190.406 156.431C190.096 156.006 189.694 155.656 189.23 155.407L114.312 114.327C114.594 114.022 114.92 113.76 115.277 113.548L190.365 154.696C190.825 154.953 191.224 155.308 191.534 155.735C191.844 156.161 192.058 156.651 192.16 157.168L201.696 207.342Z" fill="#3EB3F9"/>
<g opacity="0.6">
<path opacity="0.6" d="M201.696 207.342L201.222 207.63C201.011 207.759 200.79 207.872 200.561 207.968L191.025 157.862C190.928 157.345 190.717 156.856 190.406 156.431C190.096 156.006 189.694 155.656 189.23 155.407L114.312 114.327C114.594 114.022 114.92 113.76 115.277 113.548L190.365 154.696C190.825 154.953 191.224 155.308 191.534 155.735C191.844 156.161 192.058 156.651 192.16 157.168L201.696 207.342Z" fill="white"/>
</g>
<path d="M190.331 156.338L191.449 155.661C191.802 156.1 192.046 156.616 192.16 157.168L201.696 207.342L201.222 207.63C201.011 207.759 200.79 207.873 200.562 207.968L191.025 157.862C190.918 157.307 190.68 156.784 190.331 156.338Z" fill="#3EB3F9"/>
<path opacity="0.5" d="M190.331 156.338L191.449 155.661C191.802 156.1 192.046 156.616 192.16 157.168L201.696 207.342L201.222 207.63C201.011 207.759 200.79 207.873 200.562 207.968L191.025 157.862C190.918 157.307 190.68 156.784 190.331 156.338Z" fill="white"/>
<path opacity="0.1" d="M190.331 156.338L191.449 155.661C191.802 156.1 192.046 156.616 192.16 157.168L201.696 207.342L201.222 207.63C201.011 207.759 200.79 207.873 200.562 207.968L191.025 157.862C190.918 157.307 190.68 156.784 190.331 156.338Z" fill="#103E13"/>
<path d="M159.52 165.957C158.316 162.095 155.671 158.845 152.135 156.88C148.663 154.984 146.308 155.932 146.901 159.048C147.494 162.164 150.797 166.194 154.286 168.107C157.775 170.021 160.113 169.056 159.52 165.957Z" fill="#455A64"/>
<path d="M245.617 177.048C241.586 179.876 236.149 177.59 230.796 178.233C225.444 178.877 220.87 180.198 216.568 180.079C212.266 179.961 210.165 180.824 213.18 184.262C216.195 187.699 224.817 185.718 227.155 186.768C227.82 187.156 228.389 187.691 228.817 188.332C229.245 188.973 229.522 189.703 229.627 190.466C229.731 191.23 229.66 192.007 229.42 192.74C229.179 193.472 228.775 194.14 228.239 194.693C225.715 197.622 242.602 191.966 244.855 188.495C247.108 185.024 248.666 177.488 245.617 177.048Z" fill="#EEF9FF"/>
</svg>
